<svg width="13" height="13" viewBox="0 0 13 13" fill="none" xmlns="http://www.w3.org/2000/svg">
<path id="Vector" d="M4.76697 9.94313C4.76697 9.99069 4.71008 10.0287 4.63836 10.0287C4.55675 10.0359 4.49987 9.99783 4.49987 9.94313C4.49987 9.89557 4.55675 9.85753 4.62847 9.85753C4.70266 9.85039 4.76697 9.88844 4.76697 9.94313ZM3.99783 9.83612C3.98051 9.88368 4.02998 9.93838 4.10417 9.95264C4.16847 9.97642 4.24266 9.95264 4.2575 9.90508C4.27234 9.85753 4.22535 9.80283 4.15116 9.78143C4.08686 9.76479 4.01514 9.78856 3.99783 9.83612ZM5.09094 9.7957C5.01922 9.81235 4.96976 9.85753 4.97718 9.91222C4.9846 9.95978 5.0489 9.99069 5.12309 9.97405C5.19482 9.9574 5.24428 9.91222 5.23686 9.86466C5.22944 9.81948 5.16266 9.78857 5.09094 9.7957ZM6.71826 0.68335C3.28804 0.68335 0.664062 3.18734 0.664062 6.48558C0.664062 9.12274 2.3903 11.3794 4.856 12.1737C5.17256 12.2284 5.28385 12.0405 5.28385 11.8859C5.28385 11.7385 5.27643 10.9252 5.27643 10.4259C5.27643 10.4259 3.54525 10.7826 3.1817 9.71723C3.1817 9.71723 2.89976 9.02524 2.49417 8.84689C2.49417 8.84689 1.92783 8.47355 2.53374 8.48069C2.53374 8.48069 3.14955 8.52825 3.48836 9.0942C4.02998 10.0121 4.93761 9.74814 5.29127 9.59119C5.34815 9.21072 5.5089 8.94677 5.68697 8.78982C4.30449 8.64239 2.90965 8.44977 2.90965 6.16217C2.90965 5.50823 3.09761 5.18008 3.49331 4.76155C3.42901 4.60699 3.21879 3.96969 3.55761 3.14692C4.07449 2.99235 5.26406 3.78897 5.26406 3.78897C5.75869 3.6558 6.29041 3.58684 6.81718 3.58684C7.34395 3.58684 7.87568 3.6558 8.3703 3.78897C8.3703 3.78897 9.55987 2.98997 10.0768 3.14692C10.4156 3.97207 10.2054 4.60699 10.1411 4.76155C10.5368 5.18245 10.7791 5.51061 10.7791 6.16217C10.7791 8.45691 9.32245 8.64001 7.93998 8.78982C8.1675 8.97768 8.36041 9.33437 8.36041 9.8932C8.36041 10.6946 8.35299 11.6862 8.35299 11.8812C8.35299 12.0357 8.46675 12.2236 8.78084 12.1689C11.254 11.3794 12.9307 9.12274 12.9307 6.48558C12.9307 3.18734 10.1485 0.68335 6.71826 0.68335ZM3.06793 8.88494C3.03578 8.90872 3.0432 8.96341 3.08525 9.00859C3.12481 9.04664 3.1817 9.06329 3.21385 9.03237C3.246 9.00859 3.23858 8.9539 3.19654 8.90872C3.15697 8.87067 3.10008 8.85403 3.06793 8.88494ZM2.80084 8.69232C2.78352 8.72324 2.80826 8.76129 2.85772 8.78507C2.89729 8.80885 2.94675 8.80171 2.96406 8.76842C2.98137 8.73751 2.95664 8.69946 2.90718 8.67568C2.85772 8.66141 2.81815 8.66854 2.80084 8.69232ZM3.60213 9.53888C3.56256 9.56979 3.5774 9.64113 3.63428 9.68631C3.69116 9.74101 3.76288 9.74814 3.79503 9.71009C3.82718 9.67918 3.81234 9.60784 3.76288 9.56266C3.70847 9.50797 3.63428 9.50083 3.60213 9.53888ZM3.32019 9.18932C3.28062 9.2131 3.28062 9.27493 3.32019 9.32962C3.35976 9.38431 3.42654 9.40809 3.45869 9.38431C3.49826 9.3534 3.49826 9.29157 3.45869 9.23688C3.42406 9.18219 3.35976 9.15841 3.32019 9.18932Z" fill="#D9D9D9"/>
</svg>
