<svg width="111" height="23" viewBox="0 0 111 23" fill="none" xmlns="http://www.w3.org/2000/svg">
<rect width="111" height="23" fill="#F5F5F5"/>
<path d="M-5682 -7290C-5682 -7291.1 -5681.1 -7292 -5680 -7292H3596C3597.1 -7292 3598 -7291.1 3598 -7290V7172C3598 7173.1 3597.1 7174 3596 7174H-5680C-5681.1 7174 -5682 7173.1 -5682 7172V-7290Z" fill="#7A7A7A"/>
<g clip-path="url(#clip0_173_271)">
<rect width="1440" height="1742" transform="translate(-166 -475)" fill="white"/>
<path d="M7.57031 20.2344C4.03125 20.2344 1.44141 18.1484 1.38281 15.2188H4.80469C4.88672 16.543 6.09375 17.457 7.57031 17.4453C9.32812 17.457 10.582 16.2148 10.5703 14.4453C10.582 12.6406 9.30469 11.3867 7.52344 11.375C6.24609 11.375 5.35547 11.8555 4.85156 12.8047H1.66406L2.57812 3.03125H13.0312V5.91406H5.48438L5.01562 10.2031H5.15625C5.77734 9.37109 7.06641 8.76172 8.55469 8.77344C11.6719 8.76172 13.9922 11.0938 13.9922 14.3516C13.9922 17.7852 11.3906 20.2344 7.57031 20.2344ZM22.9688 20.2344C18.7148 20.2344 16.1484 17.0703 16.1484 11.5156C16.1484 5.97266 18.7383 2.79688 22.9688 2.79688C27.1992 2.79688 29.7891 5.97266 29.7891 11.5156C29.7891 17.0938 27.2109 20.2344 22.9688 20.2344ZM19.7578 11.5156C19.7344 15.4297 21 17.3281 22.9688 17.3281C24.9375 17.3281 26.1914 15.4297 26.1797 11.5156C26.1914 7.63672 24.9258 5.69141 22.9688 5.67969C21.0117 5.69141 19.7578 7.63672 19.7578 11.5156ZM38.8125 20.2344C34.5586 20.2344 31.9922 17.0703 31.9922 11.5156C31.9922 5.97266 34.582 2.79688 38.8125 2.79688C43.043 2.79688 45.6328 5.97266 45.6328 11.5156C45.6328 17.0938 43.0547 20.2344 38.8125 20.2344ZM35.6016 11.5156C35.5781 15.4297 36.8438 17.3281 38.8125 17.3281C40.7812 17.3281 42.0352 15.4297 42.0234 11.5156C42.0352 7.63672 40.7695 5.69141 38.8125 5.67969C36.8555 5.69141 35.6016 7.63672 35.6016 11.5156ZM54.6562 20.2344C50.4023 20.2344 47.8359 17.0703 47.8359 11.5156C47.8359 5.97266 50.4258 2.79688 54.6562 2.79688C58.8867 2.79688 61.4766 5.97266 61.4766 11.5156C61.4766 17.0938 58.8984 20.2344 54.6562 20.2344ZM51.4453 11.5156C51.4219 15.4297 52.6875 17.3281 54.6562 17.3281C56.625 17.3281 57.8789 15.4297 57.8672 11.5156C57.8789 7.63672 56.6133 5.69141 54.6562 5.67969C52.6992 5.69141 51.4453 7.63672 51.4453 11.5156ZM81.2812 0.851562V16.9531H78.2812V15.2656H74.2031V13.2266H78.2812V0.851562H81.2812ZM63.1406 10.2969C67.043 10.2734 72.3164 10.2148 76.8281 9.66406L76.9922 11.7969C75.3047 12.0781 73.5586 12.2773 71.8359 12.4062V16.4609H68.8359V19.3906H81.75V21.7812H65.8594V15.4062H68.8359V12.582C66.9258 12.6523 65.1094 12.6641 63.4922 12.6641L63.1406 10.2969ZM64.7109 5.39844C64.7109 3.125 66.9023 1.56641 70.0781 1.57812C73.1719 1.56641 75.3867 3.125 75.3984 5.39844C75.3867 7.68359 73.1719 9.16016 70.0781 9.14844C66.9023 9.16016 64.7109 7.68359 64.7109 5.39844ZM67.5469 5.39844C67.5352 6.42969 68.5547 7.00391 70.0781 6.99219C71.5078 7.00391 72.5391 6.42969 72.5625 5.39844C72.5391 4.34375 71.5078 3.75781 70.0781 3.75781C68.5547 3.75781 67.5352 4.34375 67.5469 5.39844Z" fill="#6A6A6A"/>
<path fill-rule="evenodd" clip-rule="evenodd" d="M101.059 1.39155L110.563 10.8978C111.146 11.4811 111.146 12.4269 110.563 13.0103L101.059 22.5165C100.476 23.0999 99.5309 23.0999 98.9477 22.5165C98.3645 21.9332 98.3645 20.9874 98.9477 20.404L105.902 13.4478H0V10.4603H105.902L98.9477 3.50405C98.3645 2.9207 98.3645 1.9749 98.9477 1.39155C99.5309 0.808203 100.476 0.808203 101.059 1.39155Z" fill="#281CFF"/>
</g>
<path d="M-5680 -7291H3596V-7293H-5680V-7291ZM3597 -7290V7172H3599V-7290H3597ZM3596 7173H-5680V7175H3596V7173ZM-5681 7172V-7290H-5683V7172H-5681ZM-5680 7173C-5680.55 7173 -5681 7172.55 -5681 7172H-5683C-5683 7173.66 -5681.66 7175 -5680 7175V7173ZM3597 7172C3597 7172.55 3596.55 7173 3596 7173V7175C3597.66 7175 3599 7173.66 3599 7172H3597ZM3596 -7291C3596.55 -7291 3597 -7290.55 3597 -7290H3599C3599 -7291.66 3597.66 -7293 3596 -7293V-7291ZM-5680 -7293C-5681.66 -7293 -5683 -7291.66 -5683 -7290H-5681C-5681 -7290.55 -5680.55 -7291 -5680 -7291V-7293Z" fill="black" fill-opacity="0.1"/>
<defs>
<clipPath id="clip0_173_271">
<rect width="1440" height="1742" fill="white" transform="translate(-166 -475)"/>
</clipPath>
</defs>
</svg>
