<svg width="312" height="33" viewBox="0 0 312 33" fill="none" xmlns="http://www.w3.org/2000/svg">
<rect x="0.5" y="0.5" width="311" height="32" rx="16" fill="white" stroke="#6A6A6A"/>
<path d="M39.082 10.5312V20.9727H38.1562V10.5312H39.082ZM33.5391 11.3398C35.0859 11.3516 36.1992 12.7578 36.1992 14.9727C36.1992 17.1875 35.0859 18.5938 33.5391 18.5938C31.9805 18.5938 30.8789 17.1875 30.8789 14.9727C30.8789 12.7578 31.9805 11.3516 33.5391 11.3398ZM33.5391 12.1602C32.4961 12.1719 31.7695 13.2734 31.7695 14.9727C31.7695 16.6719 32.4961 17.7734 33.5391 17.7734C34.582 17.7734 35.3086 16.6719 35.3086 14.9727C35.3086 13.2734 34.582 12.1719 33.5391 12.1602ZM46.2891 11.5625V18.3359H41.4727V11.5625H46.2891ZM42.375 12.3008V17.5859H45.3867V12.3008H42.375ZM49.4531 10.5312V20.9727H48.5273V10.5312H49.4531ZM59.9883 11.4805V12.2539H55.8281V14.4102H59.6133V15.1602H55.8281V17.6797C57.7734 17.6797 59.1094 17.6035 60.7031 17.3398L60.7969 18.1016C59.1562 18.3711 57.75 18.4297 55.7461 18.4414H54.9141V11.4805H59.9883ZM62.8594 10.5312V20.9492H61.9336V10.5312H62.8594ZM73.4883 10.543V17.6211H72.6094V10.543H73.4883ZM71.4375 10.7305V16.6836H70.5586V14.3516H68.6133C67.9805 15.5586 66.873 16.5605 65.168 17.293L64.7227 16.6133C66.2637 15.9629 67.2598 15.1016 67.8164 14.0703L64.8516 14.3867L64.6992 13.6133L68.1094 13.4023C68.2383 13.0098 68.3262 12.5996 68.3672 12.1719H65.2031V11.4102H69.2695C69.2695 12.1836 69.1641 12.9102 68.9414 13.5898H70.5586V10.7305H71.4375ZM70.4531 17.3516C70.4531 18.7461 72.2344 19.9062 74.0625 20.1875L73.6875 20.9023C72.123 20.627 70.6348 19.8125 69.9961 18.6289C69.3574 19.8125 67.8691 20.627 66.3047 20.9023L65.9414 20.1875C67.7578 19.9062 69.5391 18.7461 69.5391 17.3516V17H70.4531V17.3516ZM79.7344 10.7188C82.0547 10.7188 83.4141 11.3516 83.4141 12.5117C83.4141 13.6953 82.0547 14.3281 79.7344 14.3398C77.4141 14.3281 76.043 13.6953 76.043 12.5117C76.043 11.3516 77.4141 10.7188 79.7344 10.7188ZM79.7344 11.4102C78 11.4102 76.9922 11.832 77.0039 12.5117C76.9922 13.2383 78 13.6367 79.7344 13.6367C81.457 13.6367 82.4766 13.2383 82.4766 12.5117C82.4766 11.832 81.457 11.4102 79.7344 11.4102ZM84.4805 15.043V15.793H74.9883V15.043H84.4805ZM83.2617 16.6953V19.0273H77.0742V20.1055H83.5781V20.832H76.1602V18.3477H82.3594V17.3984H76.1367V16.6953H83.2617ZM96.6094 11.2109V12.125C96.6094 13.1152 96.6094 14.1875 96.3164 15.6875H97.8633V16.4492H93.5625V20.9727H92.6367V16.4492H88.3711V15.6875H95.3789C95.6953 14.1875 95.6953 13.0918 95.6953 12.125V11.9727H89.5664V11.2109H96.6094ZM107.672 10.5312V20.9492H106.781V15.4297H105.328V20.4219H104.449V10.7539H105.328V14.668H106.781V10.5312H107.672ZM103.113 11.75V18.1484H99.1289V11.75H103.113ZM99.9961 12.4883V17.4102H102.246V12.4883H99.9961ZM117.176 10.5312V14.832H118.922V15.5938H117.176V20.9492H116.262V10.5312H117.176ZM115.254 12.207V12.9688H109.055V12.207H111.738V10.6602H112.652V12.207H115.254ZM112.207 13.8359C113.684 13.8359 114.75 14.8203 114.762 16.2266C114.75 17.6328 113.684 18.6172 112.207 18.6172C110.719 18.6172 109.641 17.6328 109.652 16.2266C109.641 14.8203 110.719 13.8359 112.207 13.8359ZM112.207 14.6094C111.234 14.6094 110.52 15.2891 110.531 16.2266C110.52 17.1758 111.234 17.8438 112.207 17.832C113.168 17.8438 113.871 17.1758 113.883 16.2266C113.871 15.2891 113.168 14.6094 112.207 14.6094ZM128.121 10.5312V16.6484H127.195V14.6094H125.109V13.8594H127.195V12.5469H125.109V11.7969H127.195V10.5312H128.121ZM123.035 12.0078C123.023 13.5078 124.066 14.9375 125.59 15.5117L125.062 16.2383C123.932 15.7812 123.041 14.8555 122.59 13.707C122.15 14.9551 121.23 15.9277 120.012 16.4141L119.496 15.6875C121.078 15.0898 122.121 13.6484 122.133 12.0078V10.918H123.035V12.0078ZM123.07 17.5156C123.07 18.4473 123.562 19.4316 124.559 20C125.555 19.3789 126.07 18.3184 126.07 17.5156V17.0117H126.973V17.5156C126.973 18.5938 127.746 19.6719 129.105 20.1289L128.625 20.8203C127.588 20.4453 126.861 19.7129 126.516 18.8281C126.182 19.6836 125.543 20.4863 124.57 20.9023C123.568 20.5156 122.924 19.748 122.613 18.8633C122.238 19.707 121.523 20.4395 120.527 20.8203L120.07 20.1289C121.395 19.6484 122.18 18.5234 122.191 17.5156V17.0117H123.07V17.5156ZM139.605 14.6914V15.4648H137.918V20.9492H137.004V10.5312H137.918V14.6914H139.605ZM131.203 11.5625V17.5273C132.727 17.5215 134.279 17.4043 135.996 17.0469L136.113 17.832C134.32 18.1953 132.703 18.3008 131.121 18.3008H130.289V11.5625H131.203ZM149.766 18.8398V19.6133H140.227V18.8398H142.594V16.0273C141.703 15.5645 141.164 14.8145 141.164 13.8711C141.164 12.2539 142.746 11.1992 144.973 11.1875C147.199 11.1992 148.781 12.2539 148.781 13.8711C148.781 14.7969 148.26 15.541 147.398 16.0039V18.8398H149.766ZM144.973 11.9492C143.262 11.9375 142.055 12.7109 142.055 13.8711C142.055 15.0312 143.262 15.8164 144.973 15.8164C146.672 15.8164 147.891 15.0312 147.891 13.8711C147.891 12.7109 146.672 11.9375 144.973 11.9492ZM143.496 18.8398H146.473V16.3555C146.021 16.4785 145.518 16.543 144.973 16.543C144.439 16.543 143.941 16.4844 143.496 16.3672V18.8398ZM152.262 17.5508C152.273 15.9805 152.754 15.5 153.562 15.0078C154.043 14.7148 154.418 14.2461 154.418 13.5898C154.418 12.793 153.797 12.2891 153.023 12.2891C152.355 12.2891 151.688 12.6875 151.617 13.6484H150.551C150.609 12.2305 151.688 11.3984 153.023 11.3984C154.488 11.3984 155.449 12.3477 155.449 13.6367C155.449 14.5508 155.016 15.1953 154.289 15.6406C153.562 16.0859 153.293 16.5312 153.27 17.5508V17.6094H152.262V17.5508ZM152.801 20.0703C152.391 20.0703 152.039 19.7305 152.051 19.3086C152.039 18.8984 152.391 18.5586 152.801 18.5586C153.211 18.5586 153.551 18.8984 153.551 19.3086C153.551 19.7305 153.211 20.0703 152.801 20.0703Z" fill="#2D2D2D"/>
<path d="M214.936 10.543V13.6953H216.494V14.4688H214.936V17.5273H214.01V10.543H214.936ZM206.756 16.4609C207.588 16.4609 208.561 16.4609 209.58 16.4258V15.6641C208.367 15.5586 207.588 14.9902 207.588 14.1289C207.588 13.1797 208.561 12.5938 210.025 12.5938C211.502 12.5938 212.463 13.1797 212.475 14.1289C212.463 14.9844 211.701 15.5527 210.494 15.6641V16.3906C211.467 16.3438 212.451 16.2676 213.365 16.1328L213.447 16.8008C211.186 17.1992 208.689 17.2109 206.861 17.2109L206.756 16.4609ZM214.936 18.043V20.9492H214.01V18.7812H208.033V18.043H214.936ZM213.049 11.4922V12.1953H207.014V11.4922H209.58V10.4492H210.494V11.4922H213.049ZM210.025 13.25C209.064 13.2383 208.467 13.5781 208.467 14.1289C208.467 14.668 209.064 15.043 210.025 15.0312C210.986 15.043 211.596 14.668 211.596 14.1289C211.596 13.5781 210.986 13.2383 210.025 13.25ZM225.775 10.543V18.1602H224.861V10.543H225.775ZM226.104 19.9531V20.7266H219.049V17.3867H219.963V19.9531H226.104ZM220.15 11.2695C221.709 11.2695 222.881 12.3242 222.881 13.8242C222.881 15.3477 221.709 16.3906 220.15 16.3906C218.592 16.3906 217.42 15.3477 217.42 13.8242C217.42 12.3242 218.592 11.2695 220.15 11.2695ZM220.15 12.0781C219.096 12.0781 218.311 12.8047 218.322 13.8242C218.311 14.8672 219.096 15.582 220.15 15.582C221.182 15.582 221.979 14.8672 221.979 13.8242C221.979 12.8047 221.182 12.0781 220.15 12.0781ZM235.607 10.5312V14.832H237.354V15.5938H235.607V20.9492H234.693V10.5312H235.607ZM233.686 12.207V12.9688H227.486V12.207H230.17V10.6602H231.084V12.207H233.686ZM230.639 13.8359C232.115 13.8359 233.182 14.8203 233.193 16.2266C233.182 17.6328 232.115 18.6172 230.639 18.6172C229.15 18.6172 228.072 17.6328 228.084 16.2266C228.072 14.8203 229.15 13.8359 230.639 13.8359ZM230.639 14.6094C229.666 14.6094 228.951 15.2891 228.963 16.2266C228.951 17.1758 229.666 17.8438 230.639 17.832C231.6 17.8438 232.303 17.1758 232.314 16.2266C232.303 15.2891 231.6 14.6094 230.639 14.6094ZM246.541 10.5312V20.9727H245.627V15.3125H243.6V14.5391H245.627V10.5312H246.541ZM242.967 11.5039V15.1484H239.229V17.6797C241.021 17.6797 242.322 17.627 243.846 17.3398L243.916 18.1133C242.346 18.3945 240.998 18.4531 239.111 18.4648H238.314V14.3867H242.076V12.2656H238.279V11.5039H242.967ZM259.361 10.5312V14.7734H261.049V15.5469H259.361V20.9492H258.447V10.5312H259.361ZM256.666 11.6562C256.666 14.6094 255.283 17.293 251.885 18.9688L251.369 18.2422C254.064 16.9004 255.529 14.8965 255.74 12.4297H251.85V11.6562H256.666ZM270.283 10.5312V20.9492H269.357V10.5312H270.283ZM267.201 11.668C267.189 14.668 265.795 17.3164 262.303 18.9922L261.799 18.2422C264.617 16.9062 266.053 14.9082 266.264 12.418H262.279V11.668H267.201Z" fill="#2D2D2D"/>
<path fill-rule="evenodd" clip-rule="evenodd" d="M198.52 12.2746C198.912 12.2746 199.289 12.4347 199.566 12.7196C199.844 13.0046 200 13.3911 200 13.7941C200 14.197 199.844 14.5835 199.566 14.8685C199.289 15.1534 198.912 15.3135 198.52 15.3135L196.278 15.3135C196.378 15.508 196.435 15.7223 196.445 15.9416C196.456 16.1609 196.421 16.38 196.341 16.5839C196.262 16.7877 196.14 16.9715 195.985 17.1225C195.83 17.2735 195.644 17.3881 195.442 17.4586C195.578 17.6888 195.652 17.9522 195.657 18.2216C195.661 18.491 195.596 18.7568 195.467 18.9918C195.339 19.2267 195.152 19.4223 194.925 19.5584C194.699 19.6946 194.441 19.7664 194.178 19.7666L194.012 19.7666C194.056 19.8973 194.079 20.0349 194.079 20.1734L194.079 20.4765C194.079 21.316 193.416 21.9959 192.599 21.9959L189.788 21.9959C189.771 21.9985 189.754 21.9998 189.737 22C188.047 22 186.842 21.3436 186.07 20.3241C185.309 19.3209 185 18.008 185 16.7325C185 15.444 185.315 14.354 185.902 13.4229C186.485 12.4982 187.323 11.7511 188.342 11.1222C188.747 10.8498 189.157 10.5855 189.573 10.3297C191.047 9.41149 192.895 10.5241 192.895 12.2746L198.52 12.2746ZM188.743 11.7738C189.144 11.5034 189.55 11.2413 189.961 10.9877C190.921 10.3904 192.145 11.106 192.145 12.2746L192.145 12.3151L190.921 12.3151C190.827 12.3151 190.736 12.3535 190.67 12.4219C190.603 12.4903 190.566 12.5831 190.566 12.6798C190.566 12.7765 190.603 12.8692 190.67 12.9376C190.736 13.006 190.827 13.0444 190.921 13.0444L198.52 13.0444C198.713 13.0444 198.899 13.1234 199.036 13.264C199.173 13.4046 199.25 13.5952 199.25 13.7941C199.25 13.9929 199.173 14.1835 199.036 14.3241C198.899 14.4647 198.713 14.5437 198.52 14.5437L192.895 14.5412C192.801 14.5412 192.71 14.5796 192.644 14.648C192.577 14.7164 192.539 14.8092 192.539 14.9059C192.539 15.0026 192.577 15.0954 192.644 15.1638C192.71 15.2321 192.801 15.2706 192.895 15.2706L194.986 15.2706C195.174 15.2817 195.35 15.3668 195.479 15.5082C195.607 15.6495 195.677 15.8363 195.675 16.0295C195.673 16.2227 195.598 16.4075 195.466 16.5454C195.334 16.6833 195.155 16.7637 194.967 16.7698L193.211 16.7698C193.116 16.7698 193.026 16.8082 192.959 16.8766C192.893 16.945 192.855 17.0377 192.855 17.1345C192.855 17.2312 192.893 17.3239 192.959 17.3923C193.026 17.4607 193.116 17.4991 193.211 17.4991L193.637 17.4991C193.653 17.5013 193.669 17.5024 193.685 17.5024L194.178 17.5007C194.273 17.5006 194.368 17.5199 194.457 17.5574C194.545 17.595 194.626 17.65 194.694 17.7195C194.761 17.7889 194.815 17.8714 194.852 17.9622C194.889 18.0531 194.908 18.1504 194.908 18.2487C194.908 18.3471 194.889 18.4445 194.853 18.5353C194.816 18.6262 194.762 18.7088 194.695 18.7784C194.627 18.8481 194.547 18.9033 194.458 18.941C194.37 18.9788 194.275 18.9982 194.179 18.9983L192.5 18.9983C192.406 18.9983 192.315 19.0368 192.249 19.1051C192.182 19.1735 192.145 19.2663 192.145 19.363C192.145 19.4597 192.182 19.5525 192.249 19.6209C192.315 19.6893 192.406 19.7277 192.5 19.7277L192.895 19.7277C193.01 19.7277 193.12 19.7746 193.202 19.8582C193.283 19.9418 193.329 20.0552 193.329 20.1734L193.329 20.4765C193.329 20.8906 193.002 21.2261 192.599 21.2261L189.737 21.2261C189.721 21.2261 189.706 21.2277 189.692 21.2293L189.686 21.2301C188.235 21.2172 187.273 20.6572 186.663 19.8517C186.034 19.0218 185.75 17.8938 185.75 16.7317C185.75 15.5809 186.029 14.6385 186.532 13.8411C187.037 13.0388 187.781 12.3662 188.736 11.7778C188.738 11.7762 188.741 11.7748 188.744 11.7738L188.743 11.7738Z" fill="#2D2D2D"/>
</svg>
