<svg width="100" height="30" viewBox="0 0 100 30" fill="none" xmlns="http://www.w3.org/2000/svg">
<path d="M31.8984 9.14648V19.5645H31.0195V9.14648H31.8984ZM29.707 9.42773V19.0371H28.8281V14.1738H26.625C25.9863 15.3867 24.9844 16.459 23.5312 17.3145L22.9922 16.6465C25.2598 15.3047 26.3965 13.4238 26.5664 11.2441H23.4375V10.4824H27.4805C27.4746 11.5078 27.3105 12.498 26.9648 13.4238H28.8281V9.42773H29.707ZM37.0547 11.9473C37.043 13.8457 38.3438 15.7676 39.8789 16.459L39.3164 17.1855C38.1328 16.6055 37.1074 15.3809 36.6094 13.8926C36.123 15.4688 35.0977 16.7812 33.8789 17.3965L33.293 16.623C34.8398 15.9082 36.1289 13.9277 36.1406 11.9473V10.0488H37.0547V11.9473ZM41.9414 9.14648V19.5879H41.0156V9.14648H41.9414ZM52.0078 9.60352V10.2715C52.0078 10.9805 52.0078 11.8711 51.7734 13.0488H53.2617V13.7871H43.7227V13.0488H50.8477C51.082 11.8887 51.0938 11.0332 51.0938 10.3535H44.9297V9.60352H52.0078ZM52.043 14.8418V17.4668H45.7969V18.6973H52.3125V19.4473H44.8711V16.7402H51.1289V15.5801H44.8594V14.8418H52.043ZM66.6445 17.4668V18.2285H57.1055V17.4668H61.3945V15.2168H58.2305V9.88477H59.1562V11.7715H64.5703V9.88477H65.4727V15.2168H62.2969V17.4668H66.6445ZM59.1562 14.4668H64.5703V12.5215H59.1562V14.4668ZM76.1016 9.14648V19.5879H75.1875V13.9277H73.1602V13.1543H75.1875V9.14648H76.1016ZM72.5273 10.1191V13.7637H68.7891V16.2949C70.582 16.2949 71.8828 16.2422 73.4062 15.9551L73.4766 16.7285C71.9062 17.0098 70.5586 17.0684 68.6719 17.0801H67.875V13.002H71.6367V10.8809H67.8398V10.1191H72.5273ZM85.9102 9.14648V13.3887H87.5977V14.1621H85.9102V19.5645H84.9961V9.14648H85.9102ZM83.2148 10.2715C83.2148 13.2246 81.832 15.9082 78.4336 17.584L77.918 16.8574C80.6133 15.5156 82.0781 13.5117 82.2891 11.0449H78.3984V10.2715H83.2148ZM96.832 9.14648V19.5645H95.9062V9.14648H96.832ZM93.75 10.2832C93.7383 13.2832 92.3438 15.9316 88.8516 17.6074L88.3477 16.8574C91.166 15.5215 92.6016 13.5234 92.8125 11.0332H88.8281V10.2832H93.75Z" fill="#1A1A1A"/>
<path d="M7.62347 17.5653C8.40421 17.5653 9.15297 17.2552 9.70504 16.7031C10.2571 16.151 10.5673 15.4023 10.5673 14.6215C10.5673 13.8408 10.2571 13.092 9.70504 12.5399C9.15297 11.9879 8.40421 11.6777 7.62347 11.6777C6.84273 11.6777 6.09397 11.9879 5.5419 12.5399C4.98984 13.092 4.67969 13.8408 4.67969 14.6215C4.67969 15.4023 4.98984 16.151 5.5419 16.7031C6.09397 17.2552 6.84273 17.5653 7.62347 17.5653Z" stroke="#1A1A1A" stroke-linecap="round" stroke-linejoin="round"/>
<path d="M1 17.5673V11.6797C1 10.7038 1.38768 9.76785 2.07777 9.07777C2.76785 8.38768 3.7038 8 4.67973 8H10.5673C11.5432 8 12.4792 8.38768 13.1693 9.07777C13.8593 9.76785 14.247 10.7038 14.247 11.6797V17.5673C14.247 18.5432 13.8593 19.4792 13.1693 20.1693C12.4792 20.8593 11.5432 21.247 10.5673 21.247H4.67973C3.7038 21.247 2.76785 20.8593 2.07777 20.1693C1.38768 19.4792 1 18.5432 1 17.5673Z" stroke="#1A1A1A"/>
<path d="M11.6719 10.5831L11.68 10.5742" stroke="#1A1A1A" stroke-width="1.5" stroke-linecap="round" stroke-linejoin="round"/>
</svg>
