<svg width="100" height="30" viewBox="0 0 100 30" fill="none" xmlns="http://www.w3.org/2000/svg">
<path d="M36.7852 9.79492V16.2051H35.8711V9.79492H36.7852ZM33.4688 10.4512V13.3105H29.625V14.7871C31.4883 14.7871 32.8828 14.7402 34.5703 14.459L34.6758 15.2207C32.9297 15.502 31.5 15.5605 29.5781 15.5605H28.7344V12.584H32.5547V11.2246H28.7109V10.4512H33.4688ZM33.3281 16.416C35.5195 16.416 36.8555 17.1074 36.8555 18.3027C36.8555 19.498 35.5195 20.1777 33.3281 20.1777C31.1367 20.1777 29.8125 19.498 29.8125 18.3027C29.8125 17.1074 31.1367 16.416 33.3281 16.416ZM33.3281 17.1543C31.7109 17.1543 30.7148 17.5879 30.7148 18.3027C30.7148 19.0176 31.7109 19.4395 33.3281 19.4395C34.9453 19.4395 35.9297 19.0176 35.9297 18.3027C35.9297 17.5879 34.9453 17.1543 33.3281 17.1543ZM46.8633 10.8496V12.1387C46.8633 13.6738 46.8633 15.0918 46.4297 17.2012L45.5039 17.1191C45.7324 16.1172 45.8496 15.25 45.9141 14.4355L39.5508 14.7871L39.4219 14.0254L45.9492 13.7559C45.9668 13.2051 45.9668 12.6719 45.9727 12.1387V11.623H39.7031V10.8496H46.8633ZM48.0469 17.9629V18.7363H38.5547V17.9629H48.0469ZM56.6484 16.3691C58.8867 16.3691 60.3047 17.0723 60.3047 18.2793C60.3047 19.4746 58.8867 20.1777 56.6484 20.1777C54.4219 20.1777 53.0039 19.4746 53.0039 18.2793C53.0039 17.0723 54.4219 16.3691 56.6484 16.3691ZM56.6484 17.0723C54.9844 17.084 53.9062 17.541 53.918 18.2793C53.9062 19.0059 54.9844 19.4512 56.6484 19.4512C58.3125 19.4512 59.3789 19.0059 59.3906 18.2793C59.3789 17.541 58.3125 17.084 56.6484 17.0723ZM60.2227 10.3223V11.2012C60.2227 12.0449 60.2227 12.8887 59.9297 13.9668L59.0273 13.8613C59.3086 12.7832 59.3086 12.0215 59.3086 11.2012V11.0723H53.0742V10.3223H60.2227ZM61.4297 14.6465V15.3965H51.9492V14.6465H55.875V12.6309H56.7773V14.6465H61.4297ZM71.8359 15.7246V16.4863H69.3164V20.2012H68.3906V16.4863H65.7188V20.2012H64.7695V16.4863H62.2969V15.7246H71.8359ZM67.043 10.2051C69.2344 10.2051 70.7109 11.084 70.7109 12.4785C70.7109 13.8613 69.2344 14.7402 67.043 14.7285C64.8516 14.7402 63.375 13.8613 63.375 12.4785C63.375 11.084 64.8516 10.2051 67.043 10.2051ZM67.043 10.9551C65.4141 10.9551 64.3125 11.5527 64.3242 12.4785C64.3125 13.4043 65.4141 13.9902 67.043 13.9902C68.6602 13.9902 69.7734 13.4043 69.7734 12.4785C69.7734 11.5527 68.6602 10.9551 67.043 10.9551ZM80.7422 9.7832V14.084H82.4883V14.8457H80.7422V20.2012H79.8281V9.7832H80.7422ZM78.8203 11.459V12.2207H72.6211V11.459H75.3047V9.91211H76.2188V11.459H78.8203ZM75.7734 13.0879C77.25 13.0879 78.3164 14.0723 78.3281 15.4785C78.3164 16.8848 77.25 17.8691 75.7734 17.8691C74.2852 17.8691 73.207 16.8848 73.2188 15.4785C73.207 14.0723 74.2852 13.0879 75.7734 13.0879ZM75.7734 13.8613C74.8008 13.8613 74.0859 14.541 74.0977 15.4785C74.0859 16.4277 74.8008 17.0957 75.7734 17.084C76.7344 17.0957 77.4375 16.4277 77.4492 15.4785C77.4375 14.541 76.7344 13.8613 75.7734 13.8613ZM91.6641 9.7832V20.2012H90.7383V9.7832H91.6641ZM88.582 10.9199C88.5703 13.9199 87.1758 16.5684 83.6836 18.2441L83.1797 17.4941C85.998 16.1582 87.4336 14.1602 87.6445 11.6699H83.6602V10.9199H88.582Z" fill="#1A1A1A"/>
<path d="M11.6667 14.601C11.6667 15.0873 11.4735 15.5536 11.1297 15.8974C10.7859 16.2412 10.3196 16.4344 9.83333 16.4344C9.3471 16.4344 8.88079 16.2412 8.53697 15.8974C8.19315 15.5536 8 15.0873 8 14.601C8 14.1148 8.19315 13.6485 8.53697 13.3047C8.88079 12.9608 9.3471 12.7677 9.83333 12.7677C10.3196 12.7677 10.7859 12.9608 11.1297 13.3047C11.4735 13.6485 11.6667 14.1148 11.6667 14.601Z" stroke="#1A1A1A"/>
<path d="M15.3346 10.5645L11.668 13.1311M15.3346 18.6311L11.668 16.0645" stroke="#1A1A1A" stroke-linecap="round"/>
<path d="M18.9987 19.3667C18.9987 19.8529 18.8055 20.3192 18.4617 20.663C18.1179 21.0068 17.6516 21.2 17.1654 21.2C16.6791 21.2 16.2128 21.0068 15.869 20.663C15.5252 20.3192 15.332 19.8529 15.332 19.3667C15.332 18.8804 15.5252 18.4141 15.869 18.0703C16.2128 17.7265 16.6791 17.5333 17.1654 17.5333C17.6516 17.5333 18.1179 17.7265 18.4617 18.0703C18.8055 18.4141 18.9987 18.8804 18.9987 19.3667ZM18.9987 9.83333C18.9987 10.3196 18.8055 10.7859 18.4617 11.1297C18.1179 11.4735 17.6516 11.6667 17.1654 11.6667C16.6791 11.6667 16.2128 11.4735 15.869 11.1297C15.5252 10.7859 15.332 10.3196 15.332 9.83333C15.332 9.3471 15.5252 8.88079 15.869 8.53697C16.2128 8.19315 16.6791 8 17.1654 8C17.6516 8 18.1179 8.19315 18.4617 8.53697C18.8055 8.88079 18.9987 9.3471 18.9987 9.83333Z" stroke="#1A1A1A"/>
</svg>
