<svg xmlns="http://www.w3.org/2000/svg" width="11" height="13" viewBox="0 0 11 13" fill="none">
<path d="M3.80441 6.17784C3.80441 6.58871 3.64119 6.98274 3.35066 7.27327C3.06014 7.5638 2.6661 7.72701 2.25523 7.72701C1.84436 7.72701 1.45032 7.5638 1.1598 7.27327C0.869271 6.98274 0.706055 6.58871 0.706055 6.17784C0.706055 5.76697 0.869271 5.37293 1.1598 5.08241C1.45032 4.79188 1.84436 4.62866 2.25523 4.62866C2.6661 4.62866 3.06014 4.79188 3.35066 5.08241C3.64119 5.37293 3.80441 5.76697 3.80441 6.17784Z" stroke="#1A1A1A"/>
<path d="M6.90402 2.76685L3.80566 4.93569M6.90402 9.58322L3.80566 7.41437" stroke="#1A1A1A" stroke-linecap="round"/>
<path d="M9.99972 10.2047C9.99972 10.6156 9.8365 11.0097 9.54598 11.3002C9.25545 11.5907 8.86141 11.7539 8.45054 11.7539C8.03968 11.7539 7.64564 11.5907 7.35511 11.3002C7.06458 11.0097 6.90137 10.6156 6.90137 10.2047C6.90137 9.79388 7.06458 9.39984 7.35511 9.10931C7.64564 8.81878 8.03968 8.65557 8.45054 8.65557C8.86141 8.65557 9.25545 8.81878 9.54598 9.10931C9.8365 9.39984 9.99972 9.79388 9.99972 10.2047ZM9.99972 2.14903C9.99972 2.5599 9.8365 2.95394 9.54598 3.24446C9.25545 3.53499 8.86141 3.69821 8.45054 3.69821C8.03968 3.69821 7.64564 3.53499 7.35511 3.24446C7.06458 2.95394 6.90137 2.5599 6.90137 2.14903C6.90137 1.73816 7.06458 1.34412 7.35511 1.0536C7.64564 0.76307 8.03968 0.599854 8.45054 0.599854C8.86141 0.599854 9.25545 0.76307 9.54598 1.0536C9.8365 1.34412 9.99972 1.73816 9.99972 2.14903Z" stroke="#1A1A1A"/>
</svg>