<svg xmlns="http://www.w3.org/2000/svg" width="14" height="14" viewBox="0 0 14 14" fill="none">
<path d="M7 9C7.53043 9 8.03914 8.78929 8.41421 8.41421C8.78929 8.03914 9 7.53043 9 7C9 6.46957 8.78929 5.96086 8.41421 5.58579C8.03914 5.21071 7.53043 5 7 5C6.46957 5 5.96086 5.21071 5.58579 5.58579C5.21071 5.96086 5 6.46957 5 7C5 7.53043 5.21071 8.03914 5.58579 8.41421C5.96086 8.78929 6.46957 9 7 9Z" stroke="#1A1A1A" stroke-linecap="round" stroke-linejoin="round"/>
<path d="M9.75 4.5C9.94891 4.5 10.1397 4.42098 10.2803 4.28033C10.421 4.13968 10.5 3.94891 10.5 3.75C10.5 3.55109 10.421 3.36032 10.2803 3.21967C10.1397 3.07902 9.94891 3 9.75 3C9.55109 3 9.36032 3.07902 9.21967 3.21967C9.07902 3.36032 9 3.55109 9 3.75C9 3.94891 9.07902 4.13968 9.21967 4.28033C9.36032 4.42098 9.55109 4.5 9.75 4.5Z" fill="black"/>
<path d="M1 9.66667V4.33333C1 3.44928 1.35119 2.60143 1.97631 1.97631C2.60143 1.35119 3.44928 1 4.33333 1H9.66667C10.5507 1 11.3986 1.35119 12.0237 1.97631C12.6488 2.60143 13 3.44928 13 4.33333V9.66667C13 10.5507 12.6488 11.3986 12.0237 12.0237C11.3986 12.6488 10.5507 13 9.66667 13H4.33333C3.44928 13 2.60143 12.6488 1.97631 12.0237C1.35119 11.3986 1 10.5507 1 9.66667Z" stroke="#1A1A1A"/>
</svg>