<svg width="44" height="44" viewBox="0 0 44 44" fill="none" xmlns="http://www.w3.org/2000/svg">
<rect width="44" height="44" fill="#F5F5F5"/>
<rect width="1871" height="7262" transform="translate(-383 -5712)" fill="white"/>
<circle cx="22" cy="22" r="22" fill="#281CFF"/>
<path d="M22.4082 27.0341C23.635 27.0341 24.8117 26.5467 25.6792 25.6792C26.5467 24.8117 27.0341 23.635 27.0341 22.4082C27.0341 21.1813 26.5467 20.0047 25.6792 19.1371C24.8117 18.2696 23.635 17.7822 22.4082 17.7822C21.1813 17.7822 20.0047 18.2696 19.1371 19.1371C18.2696 20.0047 17.7822 21.1813 17.7822 22.4082C17.7822 23.635 18.2696 24.8117 19.1371 25.6792C20.0047 26.5467 21.1813 27.0341 22.4082 27.0341Z" stroke="white" stroke-width="1.5" stroke-linecap="round" stroke-linejoin="round"/>
<path d="M12 27.0343V17.7824C12 16.2488 12.6092 14.7781 13.6936 13.6936C14.7781 12.6092 16.2488 12 17.7824 12H27.0343C28.5679 12 30.0387 12.6092 31.1231 13.6936C32.2075 14.7781 32.8168 16.2488 32.8168 17.7824V27.0343C32.8168 28.5679 32.2075 30.0387 31.1231 31.1231C30.0387 32.2075 28.5679 32.8168 27.0343 32.8168H17.7824C16.2488 32.8168 14.7781 32.2075 13.6936 31.1231C12.6092 30.0387 12 28.5679 12 27.0343Z" stroke="white" stroke-width="1.5"/>
<path d="M28.7695 16.0618L28.7822 16.0479" stroke="white" stroke-width="2" stroke-linecap="round" stroke-linejoin="round"/>
</svg>
