<svg width="44" height="44" viewBox="0 0 44 44" fill="none" xmlns="http://www.w3.org/2000/svg">
<rect width="44" height="44" fill="#F5F5F5"/>
<rect width="1871" height="7262" transform="translate(-327 -5712)" fill="white"/>
<circle cx="22" cy="22" r="22" fill="#281CFF"/>
<path d="M22.1518 12C15.9926 12 11 16.009 11 20.9436C11 24.0617 13.0016 26.8037 16.0269 28.4004L15.0204 32.4846C15.0075 32.5356 15.0098 32.5893 15.027 32.6389C15.0443 32.6886 15.0757 32.732 15.1174 32.7635C15.159 32.7951 15.2089 32.8135 15.2609 32.8164C15.3129 32.8192 15.3645 32.8064 15.4093 32.7796L20.4362 29.7599C21.0051 29.8347 21.5781 29.8733 22.1518 29.8756C28.3111 29.8756 33.3037 25.8781 33.3037 20.9436C33.3037 16.009 28.3111 12 22.1518 12Z" stroke="white" stroke-width="1.5" stroke-linecap="round" stroke-linejoin="round"/>
</svg>
