<svg width="44" height="44" viewBox="0 0 44 44" fill="none" xmlns="http://www.w3.org/2000/svg">
<rect width="44" height="44" fill="#F5F5F5"/>
<rect width="1871" height="7262" transform="translate(-440 -5712)" fill="white"/>
<circle cx="22" cy="22" r="22" fill="#281CFF"/>
<path d="M32.5355 16.5577C32.4042 16.0623 32.147 15.6106 31.7898 15.2479C31.4325 14.8851 30.9877 14.624 30.4999 14.4906C29.1666 13.9676 16.2499 13.7113 12.5025 14.5053C12.0145 14.6387 11.5697 14.8999 11.2124 15.2627C10.8552 15.6256 10.5981 16.0774 10.4668 16.5729C9.86474 19.2544 9.81922 25.0513 10.4818 27.793C10.6131 28.2884 10.8703 28.7401 11.2275 29.1029C11.5848 29.4656 12.0296 29.7267 12.5174 29.8601C15.1581 30.4773 27.7118 30.5639 30.5148 29.8601C31.0027 29.7267 31.4475 29.4656 31.8048 29.1029C32.162 28.7401 32.4192 28.2884 32.5505 27.793C33.1923 24.8717 33.2378 19.434 32.5355 16.5577Z" stroke="white" stroke-width="1.5" stroke-linecap="round" stroke-linejoin="round"/>
<path d="M25.6117 22.1782L19.6641 18.4609V25.8955L25.6117 22.1782Z" stroke="white" stroke-width="1.5" stroke-linecap="round" stroke-linejoin="round"/>
</svg>
