<svg width="12" height="12" viewBox="0 0 12 12" fill="none" xmlns="http://www.w3.org/2000/svg">
<g id="comment-solid 4" clip-path="url(#clip0_129_317)">
<path id="Vector" d="M11.1011 5.48114C11.1011 7.88985 8.69872 9.84156 5.73448 9.84156C4.95673 9.84156 4.21881 9.70739 3.55217 9.46631C3.3027 9.6487 2.89601 9.89816 2.41385 10.1078C1.91073 10.3258 1.30488 10.5124 0.703226 10.5124C0.566963 10.5124 0.445374 10.4306 0.392965 10.3049C0.340557 10.1791 0.369906 10.0365 0.464241 9.94009L0.470531 9.9338C0.47682 9.92751 0.485205 9.91913 0.497783 9.90445C0.520843 9.87929 0.556481 9.83946 0.600505 9.78496C0.686455 9.68014 0.801755 9.52501 0.91915 9.33215C1.12879 8.98415 1.32794 8.52715 1.36777 8.01354C0.738864 7.30078 0.367809 6.4266 0.367809 5.48114C0.367809 3.07243 2.77023 1.12073 5.73448 1.12073C8.69872 1.12073 11.1011 3.07243 11.1011 5.48114Z" fill="#D9D9D9"/>
</g>
<defs>
<clipPath id="clip0_129_317">
<rect width="10.7333" height="10.7333" fill="white" transform="translate(0.367188 0.449951)"/>
</clipPath>
</defs>
</svg>
