<svg width="13" height="9" viewBox="0 0 13 9" fill="none" xmlns="http://www.w3.org/2000/svg">
<path id="Vector" d="M12.1432 1.85953C12.0021 1.36374 11.5864 0.973273 11.0587 0.840763C10.102 0.599976 6.26614 0.599976 6.26614 0.599976C6.26614 0.599976 2.43027 0.599976 1.47364 0.840763C0.945875 0.973294 0.530213 1.36374 0.389136 1.85953C0.132812 2.75817 0.132812 4.63311 0.132812 4.63311C0.132812 4.63311 0.132812 6.50805 0.389136 7.40669C0.530213 7.90248 0.945875 8.27668 1.47364 8.40919C2.43027 8.64998 6.26614 8.64998 6.26614 8.64998C6.26614 8.64998 10.102 8.64998 11.0587 8.40919C11.5864 8.27668 12.0021 7.90248 12.1432 7.40669C12.3995 6.50805 12.3995 4.63311 12.3995 4.63311C12.3995 4.63311 12.3995 2.75817 12.1432 1.85953ZM5.01159 6.33541V2.93081L8.21764 4.63315L5.01159 6.33541Z" fill="#D9D9D9"/>
</svg>
