<svg width="29" height="29" viewBox="0 0 29 29" fill="none" xmlns="http://www.w3.org/2000/svg">
<circle cx="14.3999" cy="14.4639" r="14" fill="#8E8E8E"/>
<path d="M14.6581 17.6675C15.4389 17.6675 16.1876 17.3573 16.7397 16.8053C17.2918 16.2532 17.6019 15.5044 17.6019 14.7237C17.6019 13.943 17.2918 13.1942 16.7397 12.6421C16.1876 12.0901 15.4389 11.7799 14.6581 11.7799C13.8774 11.7799 13.1286 12.0901 12.5766 12.6421C12.0245 13.1942 11.7144 13.943 11.7144 14.7237C11.7144 15.5044 12.0245 16.2532 12.5766 16.8053C13.1286 17.3573 13.8774 17.6675 14.6581 17.6675Z" stroke="white" stroke-linecap="round" stroke-linejoin="round"/>
<path d="M8.03662 17.6678V11.7802C8.03662 10.8043 8.42431 9.86831 9.11439 9.17823C9.80447 8.48815 10.7404 8.10046 11.7164 8.10046H17.6039C18.5798 8.10046 19.5158 8.48815 20.2059 9.17823C20.896 9.86831 21.2836 10.8043 21.2836 11.7802V17.6678C21.2836 18.6437 20.896 19.5796 20.2059 20.2697C19.5158 20.9598 18.5798 21.3475 17.6039 21.3475H11.7164C10.7404 21.3475 9.80447 20.9598 9.11439 20.2697C8.42431 19.5796 8.03662 18.6437 8.03662 17.6678Z" stroke="white"/>
<path d="M18.7085 10.6848L18.7166 10.6759" stroke="white" stroke-width="1.5" stroke-linecap="round" stroke-linejoin="round"/>
</svg>
