<svg width="29" height="29" viewBox="0 0 29 29" fill="none" xmlns="http://www.w3.org/2000/svg">
<circle cx="14.3999" cy="14.4639" r="14" fill="#8E8E8E"/>
<path d="M14.4965 8.10046C10.577 8.10046 7.3999 10.6516 7.3999 13.7918C7.3999 15.7761 8.67365 17.521 10.5988 18.5371L9.95832 21.1361C9.9501 21.1686 9.95158 21.2027 9.96257 21.2343C9.97355 21.2659 9.99356 21.2935 10.02 21.3136C10.0465 21.3337 10.0783 21.3454 10.1114 21.3472C10.1445 21.3491 10.1773 21.3409 10.2058 21.3239L13.4047 19.4022C13.7668 19.4498 14.1314 19.4744 14.4965 19.4758C18.416 19.4758 21.5931 16.932 21.5931 13.7918C21.5931 10.6516 18.416 8.10046 14.4965 8.10046Z" stroke="white" stroke-linecap="round" stroke-linejoin="round"/>
</svg>
