<svg width="149" height="26" viewBox="0 0 149 26" fill="none" xmlns="http://www.w3.org/2000/svg">
<path d="M9.664 6.176L15.072 0.448H18.464C20.7253 0.448 21.856 0.48 21.856 0.543999C21.856 0.586666 21.6853 0.778666 21.344 1.12C21.28 1.184 19.6907 2.79467 16.576 5.952L12.32 10.272L17.568 17.696C21.0667 22.624 22.816 25.0987 22.816 25.12C22.816 25.1627 21.664 25.184 19.36 25.184H15.904C12.6613 20.2773 10.2187 16.608 8.576 14.176C7.21067 15.5413 6.18667 16.576 5.504 17.28V25.184H0V16.384L2.144 14.112C2.35733 13.8987 3.37067 12.832 5.184 10.912C7.01867 8.97067 8.512 7.392 9.664 6.176ZM0 5.312V0.448H5.504V4.288L2.816 7.168C1.024 9.13067 0.117333 10.112 0.0960001 10.112C0.0746667 10.1333 0.0533334 9.96267 0.0320001 9.6C0.0320001 9.216 0.0213334 8.64 0 7.872C0 7.104 0 6.25067 0 5.312Z" fill="black"/>
<path d="M31.2755 12.32L35.8515 0.191999H41.6435L46.2835 12.608C47.0302 14.6133 47.7982 16.672 48.5875 18.784C49.3768 20.8747 49.9742 22.4533 50.3795 23.52C50.8062 24.608 51.0195 25.1627 51.0195 25.184C51.0408 25.2267 51.0302 25.2587 50.9875 25.28C50.9662 25.3013 50.8488 25.3227 50.6355 25.344C50.4435 25.3653 50.1555 25.376 49.7715 25.376C49.4088 25.376 48.8755 25.376 48.1715 25.376H45.2275L42.0915 16.16C40.1075 10.3787 39.0088 7.21067 38.7955 6.656C38.7955 6.63467 38.7848 6.60267 38.7635 6.56C38.7635 6.496 38.7528 6.464 38.7315 6.464C38.6888 6.464 37.3768 10.1013 34.7955 17.376L31.9795 25.312C31.3608 25.3333 30.4222 25.344 29.1635 25.344C27.9048 25.344 26.9662 25.3547 26.3475 25.376L26.5075 24.928C26.5288 24.864 26.7422 24.2773 27.1475 23.168C27.5742 22.08 28.1822 20.48 28.9715 18.368C29.7822 16.256 30.5502 14.24 31.2755 12.32Z" fill="black"/>
<path d="M70.0557 25.536V0.288H75.7518V25.536H70.0557ZM54.3438 25.536V0.288H60.0398V9.92H64.7118C65.2238 9.92 65.7144 9.92 66.1838 9.92C66.6744 9.92 67.1117 9.93067 67.4958 9.952C67.8798 9.952 68.2104 9.952 68.4878 9.952C68.7864 9.952 69.0104 9.96267 69.1598 9.984H69.3838L67.0158 12.352L64.7118 14.656H60.0398V25.536H54.3438Z" fill="black"/>
<path d="M81.8815 22.688L84.4095 20.544H96.4735V25.184H87.7695C82.0308 25.184 79.1615 25.1413 79.1615 25.056C79.1615 25.0347 79.1722 25.0133 79.1935 24.992C79.2148 24.9707 79.3428 24.8533 79.5775 24.64C79.8122 24.448 80.1642 24.1493 80.6335 23.744C81.1028 23.36 81.5188 23.008 81.8815 22.688ZM78.9695 9.504V0.448H84.4735V13.888L81.8495 16.128C80.0362 17.6853 79.1188 18.4747 79.0975 18.496C79.0762 18.5173 79.0548 18.4 79.0335 18.144C79.0122 17.888 78.9908 17.4187 78.9695 16.736C78.9695 16.032 78.9695 15.1147 78.9695 13.984C78.9695 12.832 78.9695 11.3387 78.9695 9.504Z" fill="black"/>
<path d="M115.396 7.776V0H120.868V7.872C120.868 12.6933 120.837 15.616 120.772 16.64C120.516 19.008 119.812 20.8427 118.66 22.144C117.53 23.4453 115.844 24.352 113.604 24.864C112.9 25.0347 111.759 25.12 110.181 25.12C108.602 25.12 107.77 25.088 107.685 25.024C107.663 25.024 107.653 25.0133 107.653 24.992C107.653 24.9067 108.602 24.064 110.501 22.464C112.442 20.8213 113.551 19.904 113.828 19.712C114.618 19.136 115.108 18.0267 115.3 16.384C115.365 15.9147 115.396 13.0453 115.396 7.776ZM101.957 0.0639992C103.322 0.0639992 104.239 0.0426661 104.709 0H105.349L105.381 8.576C105.402 14.336 105.455 17.344 105.541 17.6C105.797 18.2827 106.117 18.8373 106.501 19.264C106.757 19.5627 106.842 19.744 106.757 19.808C106.479 20.064 105.754 20.6827 104.581 21.664C103.429 22.624 102.831 23.104 102.789 23.104C102.746 23.104 102.511 22.8693 102.085 22.4C101.21 21.44 100.581 20.2347 100.197 18.784L99.9085 17.728C99.8872 15.7653 99.8765 12.832 99.8765 8.928C99.8765 5.00267 99.8658 2.05867 99.8445 0.0959988L101.957 0.0639992Z" fill="black"/>
<path d="M129.15 12.32L133.727 0.191999H139.518L144.158 12.608C144.905 14.6133 145.673 16.672 146.462 18.784C147.252 20.8747 147.849 22.4533 148.255 23.52C148.681 24.608 148.895 25.1627 148.895 25.184C148.916 25.2267 148.905 25.2587 148.862 25.28C148.841 25.3013 148.724 25.3227 148.51 25.344C148.318 25.3653 148.031 25.376 147.646 25.376C147.284 25.376 146.75 25.376 146.046 25.376H143.102L139.966 16.16C137.982 10.3787 136.884 7.21067 136.671 6.656C136.671 6.63467 136.66 6.60267 136.638 6.56C136.638 6.496 136.628 6.464 136.606 6.464C136.564 6.464 135.252 10.1013 132.671 17.376L129.854 25.312C129.236 25.3333 128.297 25.344 127.039 25.344C125.78 25.344 124.841 25.3547 124.223 25.376L124.382 24.928C124.404 24.864 124.617 24.2773 125.022 23.168C125.449 22.08 126.057 20.48 126.847 18.368C127.657 16.256 128.425 14.24 129.15 12.32Z" fill="black"/>
</svg>
