<svg width="29" height="29" viewBox="0 0 29 29" fill="none" xmlns="http://www.w3.org/2000/svg">
<circle cx="14.3999" cy="14.4639" r="14" fill="#8E8E8E"/>
<path d="M21.1039 11.0005C21.0204 10.6852 20.8568 10.3978 20.6294 10.1669C20.4021 9.93605 20.119 9.76988 19.8085 9.68503C18.9601 9.35218 10.7404 9.1891 8.35566 9.69434C8.04516 9.77922 7.76206 9.94544 7.53472 10.1764C7.30738 10.4073 7.14376 10.6948 7.06027 11.0101C6.67711 12.7165 6.64814 16.4055 7.0698 18.1502C7.15335 18.4654 7.31699 18.7529 7.54433 18.9837C7.77167 19.2146 8.05474 19.3807 8.3652 19.4656C10.0456 19.8584 18.0343 19.9135 19.8181 19.4656C20.1285 19.3807 20.4116 19.2146 20.6389 18.9837C20.8663 18.7529 21.0299 18.4654 21.1135 18.1502C21.5219 16.2912 21.5509 12.8308 21.1039 11.0005Z" stroke="white" stroke-linecap="round" stroke-linejoin="round"/>
<path d="M16.6984 14.5775L12.9136 12.2119V16.943L16.6984 14.5775Z" stroke="white" stroke-linecap="round" stroke-linejoin="round"/>
</svg>
